<svg width="20" height="18" viewBox="0 0 20 18" fill="none" xmlns="http://www.w3.org/2000/svg">
<path fill-rule="evenodd" clip-rule="evenodd" d="M14.5 0C17.58 0 20 2.37121 20 5.38911C20 8.92828 16.8955 12.4768 12.127 16.7768L11.3271 17.4923C10.6149 18.1276 9.56076 18.1669 8.80622 17.609L8.66841 17.4974L8.55 17.3925C3.401 12.8069 0 9.0929 0 5.38911C0 2.37121 2.42 0 5.5 0C7.241 0 8.911 0.793669 10 2.04786C11.09 0.793669 12.76 0 14.5 0ZM14.5 1.19867C13.1361 1.19867 11.7872 1.8199 10.9062 2.83366C10.4276 3.38432 9.57179 3.38413 9.09347 2.83325C8.21353 1.81983 6.86477 1.19867 5.5 1.19867C3.07762 1.19867 1.2 3.03844 1.2 5.38911C1.2 8.12025 3.37638 11.094 8.65509 15.8752L9.4643 16.6003C9.73763 16.8422 10.1352 16.8657 10.4326 16.6712L10.5278 16.5983L11.3437 15.8677C16.6187 11.1005 18.8 8.12175 18.8 5.38911C18.8 3.03844 16.9224 1.19867 14.5 1.19867Z" fill="#FFEEEE"/>
<path fill-rule="evenodd" clip-rule="evenodd" d="M14.5002 1.19873C13.1363 1.19873 11.7874 1.81997 10.9064 2.83372C10.4278 3.38438 9.57199 3.38419 9.09366 2.83331C8.21372 1.81989 6.86496 1.19873 5.5002 1.19873C3.07782 1.19873 1.2002 3.0385 1.2002 5.38917C1.2002 8.12031 3.37658 11.0941 8.65529 15.8752L9.4645 16.6003C9.73783 16.8423 10.1354 16.8658 10.4328 16.6712L10.528 16.5983L11.3439 15.8678C16.6189 11.1006 18.8002 8.12182 18.8002 5.38917C18.8002 3.0385 16.9226 1.19873 14.5002 1.19873Z" fill="#FF5722"/>
</svg>
